<svg xmlns="http://www.w3.org/2000/svg" viewBox="0 0 512 512"><defs><style>.cls-1{fill:#d2a37b;}</style></defs><g id="Formas"><path class="cls-1" d="M256.56,257.44c1.44,1,30.23-37.72,49.19-63,50.25-67.07,60.84-89.84,53.07-101.74-3.64-5.58-11.44-8.68-27-14.88-13.77-5.47-20.65-8.21-25.31-5.58-9.6,5.44,1.29,26.8.33,58.67-1.32,44.05-24.46,83-39.14,107.66C261.63,248.71,255.91,257,256.56,257.44Z"/><path class="cls-1" d="M256.31,257.36c1.75-.28-5.29-48-9.78-79.34C234.64,95.06,226,71.47,212.11,68.55c-6.51-1.37-14.22,2-29.63,8.59-13.61,5.87-20.41,8.8-21.84,14-2.95,10.62,19.86,18,41.72,41.24,30.21,32.09,41.37,76,48.45,103.81C253.72,247.61,255.51,257.49,256.31,257.36Z"/><path class="cls-1" d="M256.08,257.48c1-1.43-37.72-30.23-63-49.18C126,158,103.21,147.46,91.31,155.22c-5.57,3.64-8.67,11.44-14.88,27C71,196,68.22,202.91,70.86,207.56c5.43,9.6,26.8-1.29,58.66-.33,44.06,1.33,83,24.46,107.66,39.14C247.34,252.42,255.61,258.14,256.08,257.48Z"/><path class="cls-1" d="M256,257.73c-.28-1.74-48.05,5.3-79.35,9.79C93.7,279.41,70.11,288,67.18,301.93c-1.37,6.52,2,14.22,8.6,29.64,5.86,13.6,8.79,20.4,14,21.83,10.63,3,18-19.86,41.25-41.71,32.09-30.22,76-41.37,103.8-48.45C246.24,260.33,256.13,258.53,256,257.73Z"/><path class="cls-1" d="M256.12,258c-1.44-1-30.23,37.72-49.19,63-50.25,67.07-60.84,89.84-53.07,101.74,3.64,5.58,11.44,8.68,27,14.88,13.77,5.47,20.65,8.21,25.31,5.57,9.6-5.43-1.29-26.79-.33-58.66,1.32-44,24.46-83,39.14-107.66C251.05,266.7,256.77,258.44,256.12,258Z"/><path class="cls-1" d="M256.37,258.05c-1.75.28,5.3,48,9.78,79.34,11.89,83,20.51,106.55,34.42,109.47,6.51,1.37,14.22-1.95,29.63-8.59,13.61-5.87,20.41-8.8,21.84-14,2.95-10.62-19.86-18-41.72-41.24-30.21-32.09-41.37-76-48.44-103.81C259,267.8,257.17,257.92,256.37,258.05Z"/><path class="cls-1" d="M256.6,257.93c-1,1.43,37.72,30.23,63,49.18,67.07,50.26,89.85,60.84,101.75,53.08,5.57-3.64,8.67-11.44,14.88-27,5.47-13.76,8.21-20.65,5.57-25.31-5.43-9.59-26.8,1.3-58.66.34-44.06-1.33-83-24.46-107.66-39.15C265.34,263,257.08,257.27,256.6,257.93Z"/><path class="cls-1" d="M256.68,257.68c.28,1.74,48.05-5.3,79.35-9.79C419,236,442.57,227.38,445.5,213.48c1.37-6.52-1.95-14.22-8.6-29.64C431,170.24,428.11,163.44,423,162c-10.63-2.94-18,19.87-41.25,41.72-32.09,30.22-76,41.37-103.8,48.45C266.44,255.08,256.55,256.88,256.68,257.68Z"/><path class="cls-1" d="M256.34,257.7c2.17.36,12.71-58.57,19.78-97.13C294.84,58.37,294,27.24,278.81,18.32c-7.12-4.18-17.49-3.31-38.23-1.58-18.3,1.53-27.45,2.3-31.17,7.8-7.65,11.33,16.24,29,32.78,64.93,22.87,49.63,18.69,105.6,16,141.12C257.14,245.21,255.35,257.54,256.34,257.7Z"/><path class="cls-1" d="M256.34,257.7c1.79-1.27-32.43-50.4-54.7-82.66C142.61,89.53,120,68.11,103,72.54c-8,2.08-14.71,10-28.15,25.92C63,112.49,57,119.5,58.28,126c2.6,13.43,32,9,69.09,22.73,51.27,18.93,87.89,61.46,111.14,88.46C248.07,248.31,255.53,258.29,256.34,257.7Z"/><path class="cls-1" d="M256.34,257.7c.36-2.16-58.57-12.71-97.13-19.77C57,219.21,25.87,220,17,235.24c-4.17,7.11-3.31,17.48-1.57,38.23,1.53,18.3,2.29,27.45,7.79,31.16,11.33,7.66,29-16.24,64.93-32.78,49.64-22.87,105.6-18.69,141.13-16C243.85,256.91,256.18,258.69,256.34,257.7Z"/><path class="cls-1" d="M256.34,257.7c-1.28-1.78-50.41,32.43-82.66,54.7-85.52,59-106.94,81.64-102.5,98.69,2.08,8,10,14.71,25.92,28.15,14,11.86,21,17.79,27.55,16.52,13.42-2.6,9-32,22.73-69.09,18.93-51.27,61.46-87.89,88.45-111.13C246.94,266,256.92,258.52,256.34,257.7Z"/><path class="cls-1" d="M256.34,257.7c-2.16-.35-12.71,58.58-19.78,97.13C217.84,457,218.68,488.17,233.87,497.09c7.12,4.18,17.49,3.31,38.23,1.58,18.3-1.53,27.46-2.3,31.17-7.8,7.65-11.33-16.24-29-32.78-64.93-22.87-49.63-18.69-105.6-16-141.12C255.54,270.2,257.33,257.87,256.34,257.7Z"/><path class="cls-1" d="M256.34,257.7c-1.78,1.28,32.43,50.41,54.7,82.67,59,85.51,81.64,106.93,98.68,102.49,8-2.07,14.71-10,28.15-25.91,11.86-14,17.79-21,16.53-27.55-2.6-13.43-32-9-69.09-22.74-51.27-18.92-87.89-61.45-111.13-88.45C264.61,267.1,257.15,257.12,256.34,257.7Z"/><path class="cls-1" d="M256.34,257.7c-.36,2.17,58.57,12.72,97.13,19.78,102.21,18.72,133.34,17.89,142.26,2.69,4.17-7.11,3.31-17.48,1.57-38.23-1.53-18.3-2.29-27.45-7.79-31.16-11.33-7.66-29,16.24-64.93,32.78-49.64,22.87-105.6,18.69-141.13,16C268.83,258.5,256.5,256.72,256.34,257.7Z"/><path class="cls-1" d="M256.34,257.7c1.28,1.79,50.41-32.42,82.67-54.69,85.51-59,106.93-81.64,102.49-98.69-2.08-8-10-14.71-25.92-28.15-14-11.86-21-17.79-27.55-16.52-13.42,2.6-9,32-22.73,69.09-18.93,51.27-61.46,87.89-88.45,111.13C265.74,249.43,255.76,256.89,256.34,257.7Z"/></g></svg>